# xmcd
#
# Track frame offsets:
# 150
# 17895
# 35749
# 46199
# 60044
# 71299
# 104314
# 116817
# 127430
# 136006
#
# Disc length: 2005 seconds
#
# Revision: 1
# Processed by: cddbd v1.5.2PL0 Copyright (c) Steve Scherf et al.
# Submitted via: CoinsHifi v1.9e contact@coinshifi.com
#
DISCID=8707d30a
DTITLE=Pat and i - Patrice
DYEAR=2006
DGENRE=Acoustique
TTITLE0=P
TTITLE1=Pp
TTITLE2=P
TTITLE3=P
TTITLE4=P
TTITLE5=P
TTITLE6=P
TTITLE7=P
TTITLE8=P
TTITLE9=P
EXTD=
EXTT0=Instrumental
EXTT1=Instrumental
EXTT2=Instrumental
EXTT3=Instrumental
EXTT4=Instrumental
EXTT5=Instrumental
EXTT6=Instrumental
EXTT7=Instrumental
EXTT8=Instrumental
EXTT9=Instrumental
PLAYORDER=
